<svg xmlns="http://www.w3.org/2000/svg" width="27.019" height="27.011" viewBox="0 0 27.019 27.011">
  <g id="close" transform="translate(0 -0.07)">
    <g id="Group_17730" data-name="Group 17730" transform="translate(0 0.07)">
      <g id="Group_17729" data-name="Group 17729" transform="translate(0 0)">
        <path id="Path_20165" data-name="Path 20165" d="M23.068,4.02a13.506,13.506,0,1,0,0,19.109A13.53,13.53,0,0,0,23.068,4.02ZM21.588,21.65a11.42,11.42,0,1,1,0-16.149A11.433,11.433,0,0,1,21.588,21.65Z" transform="translate(0 -0.07)" fill="#fff"/>
      </g>
    </g>
    <g id="Group_17732" data-name="Group 17732" transform="translate(8.825 8.763)">
      <g id="Group_17731" data-name="Group 17731">
        <path id="Path_20166" data-name="Path 20166" d="M176.434,172.518l-2.963-2.959,2.963-2.959a1.047,1.047,0,1,0-1.48-1.481l-2.965,2.961-2.965-2.961a1.047,1.047,0,1,0-1.48,1.481l2.963,2.959-2.963,2.959a1.047,1.047,0,0,0,1.48,1.481l2.965-2.961L174.954,174a1.047,1.047,0,1,0,1.48-1.481Z" transform="translate(-167.236 -164.813)" fill="#fff"/>
      </g>
    </g>
  </g>
</svg>
